<?xml version="1.0" ?><!-- Uploaded to: SVG Repo, www.svgrepo.com, Generator: SVG Repo Mixer Tools -->
<svg fill="#000000" width="800px" height="800px" viewBox="-24.5 0 180 180" xmlns="http://www.w3.org/2000/svg"><path d="     M 84.0843716263771,70.3701138496399     C 84.0843716263771,70.3701138496399 84.0843716263771,30.7632851600647 84.0843716263771,30.7632851600647     C 84.0843716263771,30.7632851600647 64.2905475497246,9.15965795516968 64.2905475497246,9.15965795516968     C 64.2905475497246,9.15965795516968 44.4968093633652,30.7632851600647 44.4968093633652,30.7632851600647     C 44.4968093633652,30.7632851600647 44.4968093633652,70.3701138496399 44.4968093633652,70.3701138496399     C 44.4968093633652,70.3701138496399 1.17848509550095,70.3701138496399 1.17848509550095,70.3701138496399     C 1.17848509550095,70.3701138496399 15.5739871263504,27.162709236145 15.5739871263504,27.162709236145     C 15.5739871263504,27.162709236145 40.8979123830795,27.162709236145 40.8979123830795,27.162709236145     C 40.8979123830795,27.162709236145 64.2905475497246,1.95845246315002 64.2905475497246,1.95845246315002     C 64.2905475497246,1.95845246315002 87.6832686066628,27.162709236145 87.6832686066628,27.162709236145     C 87.6832686066628,27.162709236145 111.675753772259,27.162709236145 111.675753772259,27.162709236145     C 111.675753772259,27.162709236145 129.670144975185,70.3701138496399 129.670144975185,70.3701138496399     C 129.670144975185,70.3701138496399 84.0843716263771,70.3701138496399 84.0843716263771,70.3701138496399     Z     M 52.6737682819366,57.3526883125305     C 52.6737682819366,57.3526883125305 52.6737682819366,35.4070365428925 52.6737682819366,35.4070365428925     C 52.6737682819366,35.4070365428925 50.934380531311,35.4070365428925 50.934380531311,35.4070365428925     C 50.934380531311,35.4070365428925 50.934380531311,30.7857942581177 50.934380531311,30.7857942581177     C 50.934380531311,30.7857942581177 77.9886125922203,30.7857942581177 77.9886125922203,30.7857942581177     C 77.9886125922203,30.7857942581177 77.9886125922203,35.4070365428925 77.9886125922203,35.4070365428925     C 77.9886125922203,35.4070365428925 76.4286652803421,35.4070365428925 76.4286652803421,35.4070365428925     C 76.4286652803421,35.4070365428925 76.4286652803421,57.3526883125305 76.4286652803421,57.3526883125305     C 76.4286652803421,57.3526883125305 52.6737682819366,57.3526883125305 52.6737682819366,57.3526883125305     Z     M 62.9006474018097,35.8723247051239     C 62.9006474018097,35.8723247051239 55.1415291428566,35.8723247051239 55.1415291428566,35.8723247051239     C 55.1415291428566,35.8723247051239 55.1415291428566,43.6352384090424 55.1415291428566,43.6352384090424     C 55.1415291428566,43.6352384090424 62.9006474018097,43.6352384090424 62.9006474018097,43.6352384090424     C 62.9006474018097,43.6352384090424 62.9006474018097,35.8723247051239 62.9006474018097,35.8723247051239     Z     M 62.9006474018097,46.8963003158569     C 62.9006474018097,46.8963003158569 55.1415291428566,46.8963003158569 55.1415291428566,46.8963003158569     C 55.1415291428566,46.8963003158569 55.1415291428566,54.6592140197754 55.1415291428566,54.6592140197754     C 55.1415291428566,54.6592140197754 62.9006474018097,54.6592140197754 62.9006474018097,54.6592140197754     C 62.9006474018097,54.6592140197754 62.9006474018097,46.8963003158569 62.9006474018097,46.8963003158569     Z     M 73.9194194078445,35.8723247051239     C 73.9194194078445,35.8723247051239 66.1602152585983,35.8723247051239 66.1602152585983,35.8723247051239     C 66.1602152585983,35.8723247051239 66.1602152585983,43.6352384090424 66.1602152585983,43.6352384090424     C 66.1602152585983,43.6352384090424 73.9194194078445,43.6352384090424 73.9194194078445,43.6352384090424     C 73.9194194078445,43.6352384090424 73.9194194078445,35.8723247051239 73.9194194078445,35.8723247051239     Z     M 73.9194194078445,46.8963003158569     C 73.9194194078445,46.8963003158569 66.1602152585983,46.8963003158569 66.1602152585983,46.8963003158569     C 66.1602152585983,46.8963003158569 66.1602152585983,54.6592140197754 66.1602152585983,54.6592140197754     C 66.1602152585983,54.6592140197754 73.9194194078445,54.6592140197754 73.9194194078445,54.6592140197754     C 73.9194194078445,54.6592140197754 73.9194194078445,46.8963003158569 73.9194194078445,46.8963003158569     Z     M 125.966172933578,178.058316707611     C 125.966172933578,178.058316707611 6.36750030517578,178.058316707611 6.36750030517578,178.058316707611     C 6.36750030517578,178.058316707611 6.36750030517578,74.2717623710632 6.36750030517578,74.2717623710632     C 6.36750030517578,74.2717623710632 125.966172933578,74.2717623710632 125.966172933578,74.2717623710632     C 125.966172933578,74.2717623710632 125.966172933578,178.058316707611 125.966172933578,178.058316707611     Z     M 41.6395750641823,108.361351490021     C 41.6395750641823,108.361351490021 41.6395750641823,83.9347636699677 41.6395750641823,83.9347636699677     C 41.6395750641823,83.9347636699677 17.8846390247345,83.9347636699677 17.8846390247345,83.9347636699677     C 17.8846390247345,83.9347636699677 17.8846390247345,105.538390874863 17.8846390247345,105.538390874863     C 17.8846390247345,105.538390874863 17.8846390247345,108.361351490021 17.8846390247345,108.361351490021     C 17.8846390247345,108.361351490021 17.8846390247345,119.178357124329 17.8846390247345,119.178357124329     C 17.8846390247345,119.178357124329 41.6395750641823,119.178357124329 41.6395750641823,119.178357124329     C 41.6395750641823,119.178357124329 41.6395750641823,108.361351490021 41.6395750641823,108.361351490021     Z     M 41.6395750641823,154.369196891785     C 41.6395750641823,154.369196891785 41.6395750641823,129.942609071732 41.6395750641823,129.942609071732     C 41.6395750641823,129.942609071732 17.8846390247345,129.942609071732 17.8846390247345,129.942609071732     C 17.8846390247345,129.942609071732 17.8846390247345,151.546236276627 17.8846390247345,151.546236276627     C 17.8846390247345,151.546236276627 17.8846390247345,154.369196891785 17.8846390247345,154.369196891785     C 17.8846390247345,154.369196891785 17.8846390247345,165.186213254929 17.8846390247345,165.186213254929     C 17.8846390247345,165.186213254929 41.6395750641823,165.186213254929 41.6395750641823,165.186213254929     C 41.6395750641823,165.186213254929 41.6395750641823,154.369196891785 41.6395750641823,154.369196891785     Z     M 76.9626061916351,108.361351490021     C 76.9626061916351,108.361351490021 76.9626061916351,83.9347636699677 76.9626061916351,83.9347636699677     C 76.9626061916351,83.9347636699677 53.2076623439789,83.9347636699677 53.2076623439789,83.9347636699677     C 53.2076623439789,83.9347636699677 53.2076623439789,105.538390874863 53.2076623439789,105.538390874863     C 53.2076623439789,105.538390874863 53.2076623439789,108.361351490021 53.2076623439789,108.361351490021     C 53.2076623439789,108.361351490021 53.2076623439789,119.178357124329 53.2076623439789,119.178357124329     C 53.2076623439789,119.178357124329 76.9626061916351,119.178357124329 76.9626061916351,119.178357124329     C 76.9626061916351,119.178357124329 76.9626061916351,108.361351490021 76.9626061916351,108.361351490021     Z     M 76.9626061916351,154.369196891785     C 76.9626061916351,154.369196891785 76.9626061916351,129.942609071732 76.9626061916351,129.942609071732     C 76.9626061916351,129.942609071732 53.2076623439789,129.942609071732 53.2076623439789,129.942609071732     C 53.2076623439789,129.942609071732 53.2076623439789,151.546236276627 53.2076623439789,151.546236276627     C 53.2076623439789,151.546236276627 53.2076623439789,154.369196891785 53.2076623439789,154.369196891785     C 53.2076623439789,154.369196891785 53.2076623439789,165.186213254929 53.2076623439789,165.186213254929     C 53.2076623439789,165.186213254929 76.9626061916351,165.186213254929 76.9626061916351,165.186213254929     C 76.9626061916351,165.186213254929 76.9626061916351,154.369196891785 76.9626061916351,154.369196891785     Z     M 113.616991519928,108.361351490021     C 113.616991519928,108.361351490021 113.616991519928,83.9347636699677 113.616991519928,83.9347636699677     C 113.616991519928,83.9347636699677 89.8621335625649,83.9347636699677 89.8621335625649,83.9347636699677     C 89.8621335625649,83.9347636699677 89.8621335625649,105.538390874863 89.8621335625649,105.538390874863     C 89.8621335625649,105.538390874863 89.8621335625649,108.361351490021 89.8621335625649,108.361351490021     C 89.8621335625649,108.361351490021 89.8621335625649,119.178357124329 89.8621335625649,119.178357124329     C 89.8621335625649,119.178357124329 113.616991519928,119.178357124329 113.616991519928,119.178357124329     C 113.616991519928,119.178357124329 113.616991519928,108.361351490021 113.616991519928,108.361351490021     Z     M 113.616991519928,154.369196891785     C 113.616991519928,154.369196891785 113.616991519928,129.942609071732 113.616991519928,129.942609071732     C 113.616991519928,129.942609071732 89.8621335625649,129.942609071732 89.8621335625649,129.942609071732     C 89.8621335625649,129.942609071732 89.8621335625649,151.546236276627 89.8621335625649,151.546236276627     C 89.8621335625649,151.546236276627 89.8621335625649,154.369196891785 89.8621335625649,154.369196891785     C 89.8621335625649,154.369196891785 89.8621335625649,165.186213254929 89.8621335625649,165.186213254929     C 89.8621335625649,165.186213254929 113.616991519928,165.186213254929 113.616991519928,165.186213254929     C 113.616991519928,165.186213254929 113.616991519928,154.369196891785 113.616991519928,154.369196891785     Z     M 100.089020490646,140.651693344116     C 100.089020490646,140.651693344116 92.3298553824425,140.651693344116 92.3298553824425,140.651693344116     C 92.3298553824425,140.651693344116 92.3298553824425,132.888833284378 92.3298553824425,132.888833284378     C 92.3298553824425,132.888833284378 100.089020490646,132.888833284378 100.089020490646,132.888833284378     C 100.089020490646,132.888833284378 100.089020490646,140.651693344116 100.089020490646,140.651693344116     Z     M 100.089020490646,151.546236276627     C 100.089020490646,151.546236276627 92.3298553824425,151.546236276627 92.3298553824425,151.546236276627     C 92.3298553824425,151.546236276627 92.3298553824425,143.912808895111 92.3298553824425,143.912808895111     C 92.3298553824425,143.912808895111 100.089020490646,143.912808895111 100.089020490646,143.912808895111     C 100.089020490646,143.912808895111 100.089020490646,151.546236276627 100.089020490646,151.546236276627     Z     M 100.089020490646,162.255374193192     C 100.089020490646,162.255374193192 92.3298553824425,162.255374193192 92.3298553824425,162.255374193192     C 92.3298553824425,162.255374193192 92.3298553824425,154.492503404617 92.3298553824425,154.492503404617     C 92.3298553824425,154.492503404617 100.089020490646,154.492503404617 100.089020490646,154.492503404617     C 100.089020490646,154.492503404617 100.089020490646,162.255374193192 100.089020490646,162.255374193192     Z     M 111.107737839222,140.651693344116     C 111.107737839222,140.651693344116 103.348627388477,140.651693344116 103.348627388477,140.651693344116     C 103.348627388477,140.651693344116 103.348627388477,132.888833284378 103.348627388477,132.888833284378     C 103.348627388477,132.888833284378 111.107737839222,132.888833284378 111.107737839222,132.888833284378     C 111.107737839222,132.888833284378 111.107737839222,140.651693344116 111.107737839222,140.651693344116     Z     M 111.107737839222,151.546236276627     C 111.107737839222,151.546236276627 103.348627388477,151.546236276627 103.348627388477,151.546236276627     C 103.348627388477,151.546236276627 103.348627388477,143.912808895111 103.348627388477,143.912808895111     C 103.348627388477,143.912808895111 111.107737839222,143.912808895111 111.107737839222,143.912808895111     C 111.107737839222,143.912808895111 111.107737839222,151.546236276627 111.107737839222,151.546236276627     Z     M 111.107737839222,162.255374193192     C 111.107737839222,162.255374193192 103.348627388477,162.255374193192 103.348627388477,162.255374193192     C 103.348627388477,162.255374193192 103.348627388477,154.492503404617 103.348627388477,154.492503404617     C 103.348627388477,154.492503404617 111.107737839222,154.492503404617 111.107737839222,154.492503404617     C 111.107737839222,154.492503404617 111.107737839222,162.255374193192 111.107737839222,162.255374193192     Z     M 100.089020490646,94.6439445018768     C 100.089020490646,94.6439445018768 92.3298553824425,94.6439445018768 92.3298553824425,94.6439445018768     C 92.3298553824425,94.6439445018768 92.3298553824425,86.8809771537781 92.3298553824425,86.8809771537781     C 92.3298553824425,86.8809771537781 100.089020490646,86.8809771537781 100.089020490646,86.8809771537781     C 100.089020490646,86.8809771537781 100.089020490646,94.6439445018768 100.089020490646,94.6439445018768     Z     M 100.089020490646,105.538390874863     C 100.089020490646,105.538390874863 92.3298553824425,105.538390874863 92.3298553824425,105.538390874863     C 92.3298553824425,105.538390874863 92.3298553824425,97.9050064086914 92.3298553824425,97.9050064086914     C 92.3298553824425,97.9050064086914 100.089020490646,97.9050064086914 100.089020490646,97.9050064086914     C 100.089020490646,97.9050064086914 100.089020490646,105.538390874863 100.089020490646,105.538390874863     Z     M 100.089020490646,116.247625350952     C 100.089020490646,116.247625350952 92.3298553824425,116.247625350952 92.3298553824425,116.247625350952     C 92.3298553824425,116.247625350952 92.3298553824425,108.484700918198 92.3298553824425,108.484700918198     C 92.3298553824425,108.484700918198 100.089020490646,108.484700918198 100.089020490646,108.484700918198     C 100.089020490646,108.484700918198 100.089020490646,116.247625350952 100.089020490646,116.247625350952     Z     M 111.107737839222,94.6439445018768     C 111.107737839222,94.6439445018768 103.348627388477,94.6439445018768 103.348627388477,94.6439445018768     C 103.348627388477,94.6439445018768 103.348627388477,86.8809771537781 103.348627388477,86.8809771537781     C 103.348627388477,86.8809771537781 111.107737839222,86.8809771537781 111.107737839222,86.8809771537781     C 111.107737839222,86.8809771537781 111.107737839222,94.6439445018768 111.107737839222,94.6439445018768     Z     M 111.107737839222,105.538390874863     C 111.107737839222,105.538390874863 103.348627388477,105.538390874863 103.348627388477,105.538390874863     C 103.348627388477,105.538390874863 103.348627388477,97.9050064086914 103.348627388477,97.9050064086914     C 103.348627388477,97.9050064086914 111.107737839222,97.9050064086914 111.107737839222,97.9050064086914     C 111.107737839222,97.9050064086914 111.107737839222,105.538390874863 111.107737839222,105.538390874863     Z     M 111.107737839222,116.247625350952     C 111.107737839222,116.247625350952 103.348627388477,116.247625350952 103.348627388477,116.247625350952     C 103.348627388477,116.247625350952 103.348627388477,108.484700918198 103.348627388477,108.484700918198     C 103.348627388477,108.484700918198 111.107737839222,108.484700918198 111.107737839222,108.484700918198     C 111.107737839222,108.484700918198 111.107737839222,116.247625350952 111.107737839222,116.247625350952     Z     M 63.4345492720604,140.651693344116     C 63.4345492720604,140.651693344116 55.6753841638565,140.651693344116 55.6753841638565,140.651693344116     C 55.6753841638565,140.651693344116 55.6753841638565,132.888833284378 55.6753841638565,132.888833284378     C 55.6753841638565,132.888833284378 63.4345492720604,132.888833284378 63.4345492720604,132.888833284378     C 63.4345492720604,132.888833284378 63.4345492720604,140.651693344116 63.4345492720604,140.651693344116     Z     M 63.4345492720604,151.546236276627     C 63.4345492720604,151.546236276627 55.6753841638565,151.546236276627 55.6753841638565,151.546236276627     C 55.6753841638565,151.546236276627 55.6753841638565,143.912808895111 55.6753841638565,143.912808895111     C 55.6753841638565,143.912808895111 63.4345492720604,143.912808895111 63.4345492720604,143.912808895111     C 63.4345492720604,143.912808895111 63.4345492720604,151.546236276627 63.4345492720604,151.546236276627     Z     M 63.4345492720604,162.255374193192     C 63.4345492720604,162.255374193192 55.6753841638565,162.255374193192 55.6753841638565,162.255374193192     C 55.6753841638565,162.255374193192 55.6753841638565,154.492503404617 55.6753841638565,154.492503404617     C 55.6753841638565,154.492503404617 63.4345492720604,154.492503404617 63.4345492720604,154.492503404617     C 63.4345492720604,154.492503404617 63.4345492720604,162.255374193192 63.4345492720604,162.255374193192     Z     M 74.4533134698868,140.651693344116     C 74.4533134698868,140.651693344116 66.6941093206406,140.651693344116 66.6941093206406,140.651693344116     C 66.6941093206406,140.651693344116 66.6941093206406,132.888833284378 66.6941093206406,132.888833284378     C 66.6941093206406,132.888833284378 74.4533134698868,132.888833284378 74.4533134698868,132.888833284378     C 74.4533134698868,132.888833284378 74.4533134698868,140.651693344116 74.4533134698868,140.651693344116     Z     M 74.4533134698868,151.546236276627     C 74.4533134698868,151.546236276627 66.6941093206406,151.546236276627 66.6941093206406,151.546236276627     C 66.6941093206406,151.546236276627 66.6941093206406,143.912808895111 66.6941093206406,143.912808895111     C 66.6941093206406,143.912808895111 74.4533134698868,143.912808895111 74.4533134698868,143.912808895111     C 74.4533134698868,143.912808895111 74.4533134698868,151.546236276627 74.4533134698868,151.546236276627     Z     M 74.4533134698868,162.255374193192     C 74.4533134698868,162.255374193192 66.6941093206406,162.255374193192 66.6941093206406,162.255374193192     C 66.6941093206406,162.255374193192 66.6941093206406,154.492503404617 66.6941093206406,154.492503404617     C 66.6941093206406,154.492503404617 74.4533134698868,154.492503404617 74.4533134698868,154.492503404617     C 74.4533134698868,154.492503404617 74.4533134698868,162.255374193192 74.4533134698868,162.255374193192     Z     M 63.4345492720604,94.6439445018768     C 63.4345492720604,94.6439445018768 55.6753841638565,94.6439445018768 55.6753841638565,94.6439445018768     C 55.6753841638565,94.6439445018768 55.6753841638565,86.8809771537781 55.6753841638565,86.8809771537781     C 55.6753841638565,86.8809771537781 63.4345492720604,86.8809771537781 63.4345492720604,86.8809771537781     C 63.4345492720604,86.8809771537781 63.4345492720604,94.6439445018768 63.4345492720604,94.6439445018768     Z     M 63.4345492720604,105.538390874863     C 63.4345492720604,105.538390874863 55.6753841638565,105.538390874863 55.6753841638565,105.538390874863     C 55.6753841638565,105.538390874863 55.6753841638565,97.9050064086914 55.6753841638565,97.9050064086914     C 55.6753841638565,97.9050064086914 63.4345492720604,97.9050064086914 63.4345492720604,97.9050064086914     C 63.4345492720604,97.9050064086914 63.4345492720604,105.538390874863 63.4345492720604,105.538390874863     Z     M 63.4345492720604,116.247625350952     C 63.4345492720604,116.247625350952 55.6753841638565,116.247625350952 55.6753841638565,116.247625350952     C 55.6753841638565,116.247625350952 55.6753841638565,108.484700918198 55.6753841638565,108.484700918198     C 55.6753841638565,108.484700918198 63.4345492720604,108.484700918198 63.4345492720604,108.484700918198     C 63.4345492720604,108.484700918198 63.4345492720604,116.247625350952 63.4345492720604,116.247625350952     Z     M 74.4533134698868,94.6439445018768     C 74.4533134698868,94.6439445018768 66.6941093206406,94.6439445018768 66.6941093206406,94.6439445018768     C 66.6941093206406,94.6439445018768 66.6941093206406,86.8809771537781 66.6941093206406,86.8809771537781     C 66.6941093206406,86.8809771537781 74.4533134698868,86.8809771537781 74.4533134698868,86.8809771537781     C 74.4533134698868,86.8809771537781 74.4533134698868,94.6439445018768 74.4533134698868,94.6439445018768     Z     M 74.4533134698868,105.538390874863     C 74.4533134698868,105.538390874863 66.6941093206406,105.538390874863 66.6941093206406,105.538390874863     C 66.6941093206406,105.538390874863 66.6941093206406,97.9050064086914 66.6941093206406,97.9050064086914     C 66.6941093206406,97.9050064086914 74.4533134698868,97.9050064086914 74.4533134698868,97.9050064086914     C 74.4533134698868,97.9050064086914 74.4533134698868,105.538390874863 74.4533134698868,105.538390874863     Z     M 74.4533134698868,116.247625350952     C 74.4533134698868,116.247625350952 66.6941093206406,116.247625350952 66.6941093206406,116.247625350952     C 66.6941093206406,116.247625350952 66.6941093206406,108.484700918198 66.6941093206406,108.484700918198     C 66.6941093206406,108.484700918198 74.4533134698868,108.484700918198 74.4533134698868,108.484700918198     C 74.4533134698868,108.484700918198 74.4533134698868,116.247625350952 74.4533134698868,116.247625350952     Z     M 28.1115571856499,140.651693344116     C 28.1115571856499,140.651693344116 20.3523998856544,140.651693344116 20.3523998856544,140.651693344116     C 20.3523998856544,140.651693344116 20.3523998856544,132.888833284378 20.3523998856544,132.888833284378     C 20.3523998856544,132.888833284378 28.1115571856499,132.888833284378 28.1115571856499,132.888833284378     C 28.1115571856499,132.888833284378 28.1115571856499,140.651693344116 28.1115571856499,140.651693344116     Z     M 28.1115571856499,151.546236276627     C 28.1115571856499,151.546236276627 20.3523998856544,151.546236276627 20.3523998856544,151.546236276627     C 20.3523998856544,151.546236276627 20.3523998856544,143.912808895111 20.3523998856544,143.912808895111     C 20.3523998856544,143.912808895111 28.1115571856499,143.912808895111 28.1115571856499,143.912808895111     C 28.1115571856499,143.912808895111 28.1115571856499,151.546236276627 28.1115571856499,151.546236276627     Z     M 28.1115571856499,162.255374193192     C 28.1115571856499,162.255374193192 20.3523998856544,162.255374193192 20.3523998856544,162.255374193192     C 20.3523998856544,162.255374193192 20.3523998856544,154.492503404617 20.3523998856544,154.492503404617     C 20.3523998856544,154.492503404617 28.1115571856499,154.492503404617 28.1115571856499,154.492503404617     C 28.1115571856499,154.492503404617 28.1115571856499,162.255374193192 28.1115571856499,162.255374193192     Z     M 39.1303291916847,140.651693344116     C 39.1303291916847,140.651693344116 31.3710781931877,140.651693344116 31.3710781931877,140.651693344116     C 31.3710781931877,140.651693344116 31.3710781931877,132.888833284378 31.3710781931877,132.888833284378     C 31.3710781931877,132.888833284378 39.1303291916847,132.888833284378 39.1303291916847,132.888833284378     C 39.1303291916847,132.888833284378 39.1303291916847,140.651693344116 39.1303291916847,140.651693344116     Z     M 39.1303291916847,151.546236276627     C 39.1303291916847,151.546236276627 31.3710781931877,151.546236276627 31.3710781931877,151.546236276627     C 31.3710781931877,151.546236276627 31.3710781931877,143.912808895111 31.3710781931877,143.912808895111     C 31.3710781931877,143.912808895111 39.1303291916847,143.912808895111 39.1303291916847,143.912808895111     C 39.1303291916847,143.912808895111 39.1303291916847,151.546236276627 39.1303291916847,151.546236276627     Z     M 39.1303291916847,162.255374193192     C 39.1303291916847,162.255374193192 31.3710781931877,162.255374193192 31.3710781931877,162.255374193192     C 31.3710781931877,162.255374193192 31.3710781931877,154.492503404617 31.3710781931877,154.492503404617     C 31.3710781931877,154.492503404617 39.1303291916847,154.492503404617 39.1303291916847,154.492503404617     C 39.1303291916847,154.492503404617 39.1303291916847,162.255374193192 39.1303291916847,162.255374193192     Z     M 28.1115571856499,94.6439445018768     C 28.1115571856499,94.6439445018768 20.3523998856544,94.6439445018768 20.3523998856544,94.6439445018768     C 20.3523998856544,94.6439445018768 20.3523998856544,86.8809771537781 20.3523998856544,86.8809771537781     C 20.3523998856544,86.8809771537781 28.1115571856499,86.8809771537781 28.1115571856499,86.8809771537781     C 28.1115571856499,86.8809771537781 28.1115571856499,94.6439445018768 28.1115571856499,94.6439445018768     Z     M 28.1115571856499,105.538390874863     C 28.1115571856499,105.538390874863 20.3523998856544,105.538390874863 20.3523998856544,105.538390874863     C 20.3523998856544,105.538390874863 20.3523998856544,97.9050064086914 20.3523998856544,97.9050064086914     C 20.3523998856544,97.9050064086914 28.1115571856499,97.9050064086914 28.1115571856499,97.9050064086914     C 28.1115571856499,97.9050064086914 28.1115571856499,105.538390874863 28.1115571856499,105.538390874863     Z     M 28.1115571856499,116.247625350952     C 28.1115571856499,116.247625350952 20.3523998856544,116.247625350952 20.3523998856544,116.247625350952     C 20.3523998856544,116.247625350952 20.3523998856544,108.484700918198 20.3523998856544,108.484700918198     C 20.3523998856544,108.484700918198 28.1115571856499,108.484700918198 28.1115571856499,108.484700918198     C 28.1115571856499,108.484700918198 28.1115571856499,116.247625350952 28.1115571856499,116.247625350952     Z     M 39.1303291916847,94.6439445018768     C 39.1303291916847,94.6439445018768 31.3710781931877,94.6439445018768 31.3710781931877,94.6439445018768     C 31.3710781931877,94.6439445018768 31.3710781931877,86.8809771537781 31.3710781931877,86.8809771537781     C 31.3710781931877,86.8809771537781 39.1303291916847,86.8809771537781 39.1303291916847,86.8809771537781     C 39.1303291916847,86.8809771537781 39.1303291916847,94.6439445018768 39.1303291916847,94.6439445018768     Z     M 39.1303291916847,105.538390874863     C 39.1303291916847,105.538390874863 31.3710781931877,105.538390874863 31.3710781931877,105.538390874863     C 31.3710781931877,105.538390874863 31.3710781931877,97.9050064086914 31.3710781931877,97.9050064086914     C 31.3710781931877,97.9050064086914 39.1303291916847,97.9050064086914 39.1303291916847,97.9050064086914     C 39.1303291916847,97.9050064086914 39.1303291916847,105.538390874863 39.1303291916847,105.538390874863     Z     M 39.1303291916847,116.247625350952     C 39.1303291916847,116.247625350952 31.3710781931877,116.247625350952 31.3710781931877,116.247625350952     C 31.3710781931877,116.247625350952 31.3710781931877,108.484700918198 31.3710781931877,108.484700918198     C 31.3710781931877,108.484700918198 39.1303291916847,108.484700918198 39.1303291916847,108.484700918198     C 39.1303291916847,108.484700918198 39.1303291916847,116.247625350952 39.1303291916847,116.247625350952     Z " fill-rule="nonzero" id="house-shape-PhotoshopSupply.com"/></svg>